<?xml version="1.0" encoding="utf-8"?>
<!-- Generator: Adobe Illustrator 23.0.1, SVG Export Plug-In . SVG Version: 6.00 Build 0)  -->
<svg version="1.1" id="Default" xmlns="http://www.w3.org/2000/svg" xmlns:xlink="http://www.w3.org/1999/xlink" x="0px" y="0px"
	 viewBox="0 0 236.89 148.44" style="enable-background:new 0 0 236.89 148.44;" xml:space="preserve">
<style type="text/css">
	.st0{fill:#82C9FA;}
</style>
<path class="st0" d="M173.09,23.58c1.21-0.02,1.96-0.42,2.64-1.43c0.61-0.9,1.22-1.81,1.83-2.71c0.47-0.69,0.94-1.38,1.4-2.07
	c0.46-0.69,0.92-1.37,1.42-2.08c0.08-0.11,0.16-0.23,0.25-0.34c0.1-0.11,0.21-0.22,0.33-0.32c0.24-0.2,0.51-0.37,0.8-0.49
	c0.29-0.12,0.6-0.21,0.9-0.25c0.15-0.02,0.31-0.03,0.46-0.02c0.15,0.01,0.3,0.03,0.45,0.05c3.54,0.54,7.07,1.44,10.5,2.63
	c3.43,1.19,6.75,2.68,9.86,4.45c0.13,0.08,0.26,0.15,0.39,0.24c0.12,0.09,0.24,0.19,0.35,0.3c0.22,0.22,0.41,0.48,0.56,0.75
	c0.15,0.28,0.26,0.58,0.32,0.88c0.03,0.15,0.05,0.31,0.06,0.45c0.01,0.15,0,0.28-0.01,0.42c-0.05,0.87-0.12,1.69-0.18,2.51
	c-0.06,0.83-0.12,1.66-0.19,2.49c-0.08,1.09-0.16,2.18-0.24,3.26c-0.09,1.21,0.24,1.99,1.19,2.76c1.13,0.93,2.22,1.9,3.28,2.91
	c0.87,0.85,1.68,1.09,2.88,0.86c1.07-0.21,2.14-0.41,3.21-0.62c0.82-0.16,1.64-0.32,2.45-0.47c0.81-0.16,1.62-0.32,2.48-0.47
	c0.14-0.02,0.27-0.05,0.42-0.06c0.15-0.01,0.3-0.01,0.46,0.01c0.31,0.03,0.62,0.1,0.91,0.22c0.29,0.12,0.57,0.28,0.81,0.47
	c0.12,0.09,0.24,0.2,0.34,0.31c0.1,0.11,0.19,0.23,0.28,0.36c2.12,2.89,3.98,6.02,5.56,9.28c1.58,3.27,2.88,6.67,3.83,10.12
	c0.04,0.15,0.08,0.29,0.1,0.44c0.02,0.15,0.03,0.3,0.03,0.46c0,0.31-0.05,0.62-0.14,0.93c-0.09,0.3-0.23,0.59-0.4,0.85
	c-0.09,0.13-0.18,0.25-0.28,0.36c-0.1,0.11-0.2,0.2-0.3,0.29c-0.65,0.58-1.28,1.11-1.91,1.65c-0.63,0.54-1.26,1.08-1.89,1.63
	c-0.83,0.71-1.65,1.42-2.48,2.13c-0.92,0.79-1.23,1.58-1.11,2.79c0.15,1.46,0.23,2.92,0.26,4.39c0.02,1.21,0.42,1.96,1.43,2.64
	c0.9,0.61,1.81,1.22,2.71,1.83c0.69,0.47,1.38,0.94,2.07,1.4c0.69,0.46,1.37,0.92,2.08,1.42c0.11,0.08,0.23,0.16,0.34,0.25
	c0.11,0.1,0.22,0.21,0.32,0.33c0.2,0.24,0.37,0.51,0.49,0.8c0.13,0.29,0.21,0.6,0.25,0.9c0.02,0.15,0.03,0.31,0.02,0.46
	c-0.01,0.15-0.03,0.3-0.05,0.45c-0.54,3.54-1.44,7.07-2.63,10.5c-1.19,3.43-2.68,6.75-4.45,9.86c-0.08,0.13-0.15,0.26-0.24,0.39
	c-0.09,0.12-0.19,0.24-0.3,0.35c-0.22,0.22-0.48,0.41-0.75,0.56c-0.28,0.15-0.58,0.26-0.88,0.32c-0.15,0.03-0.31,0.05-0.45,0.06
	c-0.15,0.01-0.28,0-0.42-0.01c-0.87-0.05-1.69-0.12-2.51-0.18c-0.83-0.06-1.66-0.12-2.49-0.19c-1.09-0.08-2.18-0.16-3.26-0.24
	c-1.21-0.09-1.99,0.24-2.76,1.19c-0.93,1.13-1.9,2.22-2.91,3.28c-0.85,0.87-1.09,1.68-0.86,2.88c0.21,1.07,0.41,2.14,0.62,3.21
	c0.16,0.82,0.32,1.64,0.47,2.45c0.16,0.81,0.32,1.62,0.47,2.48c0.02,0.14,0.05,0.27,0.06,0.42c0.01,0.15,0.01,0.3-0.01,0.46
	c-0.03,0.31-0.1,0.62-0.22,0.91c-0.12,0.29-0.28,0.57-0.47,0.81c-0.09,0.12-0.2,0.24-0.31,0.34c-0.11,0.1-0.23,0.19-0.36,0.28
	c-2.89,2.12-6.02,3.98-9.28,5.56c-3.27,1.58-6.67,2.88-10.12,3.83c-0.15,0.04-0.29,0.08-0.44,0.1c-0.15,0.02-0.3,0.03-0.46,0.03
	c-0.31,0-0.62-0.05-0.93-0.14c-0.3-0.09-0.59-0.23-0.85-0.4c-0.13-0.09-0.25-0.18-0.36-0.28c-0.11-0.1-0.2-0.2-0.29-0.3
	c-0.58-0.65-1.11-1.28-1.65-1.9c-0.54-0.63-1.08-1.26-1.63-1.89c-0.71-0.83-1.42-1.65-2.13-2.48c-0.79-0.92-1.58-1.23-2.79-1.11
	c-1.46,0.15-2.91,0.23-4.38,0.25c-1.21,0.02-1.96,0.42-2.64,1.43c-0.61,0.9-1.22,1.81-1.83,2.71c-0.47,0.69-0.94,1.38-1.4,2.07
	c-0.46,0.69-0.92,1.37-1.42,2.08c-0.08,0.11-0.16,0.23-0.25,0.34c-0.1,0.11-0.21,0.22-0.33,0.32c-0.24,0.2-0.51,0.37-0.8,0.49
	c-0.29,0.12-0.6,0.21-0.9,0.25c-0.15,0.02-0.31,0.03-0.46,0.02c-0.15-0.01-0.3-0.03-0.45-0.05c-3.54-0.54-7.07-1.44-10.5-2.63
	c-3.43-1.19-6.75-2.68-9.86-4.45c-0.13-0.08-0.26-0.15-0.39-0.24c-0.12-0.09-0.24-0.19-0.35-0.3c-0.22-0.22-0.41-0.48-0.56-0.75
	c-0.15-0.28-0.26-0.58-0.32-0.88c-0.03-0.15-0.05-0.31-0.06-0.45c-0.01-0.15,0-0.28,0.01-0.42c0.05-0.87,0.12-1.69,0.18-2.51
	c0.06-0.83,0.12-1.66,0.19-2.49c0.08-1.09,0.16-2.18,0.24-3.26c0.09-1.21-0.24-1.99-1.19-2.76c-1.12-0.91-2.19-1.87-3.23-2.87
	c-0.91-0.88-1.75-1.11-2.98-0.83c-1.04,0.24-2.08,0.47-3.12,0.71c-0.81,0.19-1.63,0.37-2.43,0.56c-0.81,0.19-1.61,0.37-2.46,0.55
	c-0.13,0.03-0.27,0.06-0.42,0.07c-0.15,0.01-0.3,0.02-0.46,0.01c-0.31-0.02-0.62-0.08-0.92-0.19c-0.3-0.11-0.58-0.26-0.83-0.44
	c-0.13-0.09-0.24-0.19-0.35-0.3c-0.11-0.11-0.2-0.22-0.29-0.34c-1.1-1.39-2.18-2.95-3.11-4.37c-0.47-0.71-0.89-1.39-1.32-2.08
	c-0.43-0.69-0.86-1.39-1.28-2.09c-0.42-0.7-0.83-1.4-1.24-2.12c-0.2-0.36-0.41-0.71-0.62-1.1c-0.21-0.38-0.43-0.79-0.64-1.2
	c-0.21-0.41-0.42-0.82-0.61-1.2c-0.19-0.38-0.36-0.73-0.53-1.08c-0.34-0.71-0.68-1.43-1.01-2.15c-0.06-0.12-0.11-0.24-0.15-0.37
	c-0.04-0.13-0.07-0.26-0.08-0.4c-0.03-0.28-0.03-0.56,0.02-0.85c0.05-0.29,0.14-0.57,0.27-0.84c0.06-0.13,0.14-0.27,0.22-0.38
	c0.08-0.12,0.17-0.22,0.25-0.33c0.55-0.66,1.07-1.28,1.59-1.91c0.52-0.64,1.02-1.3,1.53-1.96c0.59-0.77,1.18-1.54,1.77-2.31
	c0.92-1.2,0.99-2.16,0.28-3.5c-4.09-7.67-8.18-15.33-12.27-23c-6.84-13.1-20.98-20.7-35.68-19.2C48.6,41.11,33.73,63.95,40.82,85.81
	c7.1,21.86,32.55,31.61,52.43,20.08c1.46-0.85,3.33-0.43,4.29,0.95c4.11,5.9,8.22,11.81,12.33,17.71c0.37,0.53,0.55,1.05,0.58,1.69
	c0.15,3,0.3,6,0.45,9c0.07,1.49-0.4,2.32-1.71,3.02c-7.9,4.23-15.92,6.79-24.81,7.94c-1.48,0.19-2.35-0.21-3.15-1.47
	c-1.47-2.29-2.94-4.59-4.41-6.88c-0.68-1.05-1.43-1.47-2.68-1.49c-2.75-0.04-5.46-0.27-8.18-0.68c-1.24-0.19-2.05,0.1-2.89,1.03
	c-1.83,2.02-3.65,4.04-5.48,6.06c-1,1.1-1.92,1.36-3.35,0.93c-8.58-2.6-16.06-6.45-23.16-11.92c-1.18-0.91-1.51-1.81-1.19-3.27
	c0.58-2.66,1.16-5.32,1.75-7.98c0.27-1.22,0.03-2.05-0.84-2.95c-1.91-1.97-3.67-4.05-5.3-6.27c-0.74-1.01-1.52-1.38-2.77-1.31
	c-2.72,0.14-5.44,0.27-8.16,0.41c-1.49,0.07-2.32-0.4-3.02-1.71C7.32,100.8,4.75,92.79,3.6,83.9c-0.19-1.48,0.21-2.35,1.47-3.15
	c2.29-1.47,4.59-2.94,6.88-4.41c1.05-0.68,1.47-1.43,1.49-2.68c0.04-2.75,0.27-5.46,0.68-8.18c0.19-1.24-0.1-2.05-1.03-2.89
	c-2.02-1.83-4.04-3.65-6.06-5.48c-1.1-1-1.36-1.92-0.93-3.35c2.6-8.58,6.45-16.06,11.92-23.16c0.91-1.18,1.81-1.51,3.27-1.19
	c2.66,0.58,5.32,1.16,7.98,1.75c1.22,0.27,2.05,0.03,2.95-0.84c1.98-1.91,4.06-3.67,6.27-5.31c1.01-0.74,1.38-1.52,1.31-2.77
	c-0.14-2.72-0.27-5.44-0.41-8.16c-0.07-1.49,0.4-2.32,1.71-3.02c7.9-4.23,15.91-6.79,24.81-7.94c1.48-0.19,2.35,0.21,3.15,1.47
	c1.47,2.29,2.94,4.59,4.41,6.88c0.68,1.05,1.43,1.47,2.68,1.49c2.75,0.04,5.46,0.27,8.18,0.68c1.24,0.19,2.05-0.1,2.89-1.03
	c1.83-2.02,3.65-4.04,5.48-6.06c1-1.1,1.92-1.36,3.35-0.93c8.58,2.6,16.06,6.45,23.16,11.92c1.18,0.91,1.51,1.81,1.19,3.27
	c-0.58,2.66-1.16,5.32-1.75,7.98c-0.27,1.22-0.03,2.05,0.84,2.95c1.36,1.41,2.65,2.88,3.88,4.41c0.8,1.01,2.13,1.44,3.38,1.11
	c2.49-0.67,4.98-1.33,7.47-2c1.45-0.39,2.36-0.1,3.33,1.05c5.4,6.44,9.21,13.3,11.83,21.28c0.47,1.42,0.23,2.36-0.86,3.38
	c-1.79,1.68-3.59,3.36-5.38,5.05c-1.08,1.01-1.34,2.63-0.63,3.93c0.23,0.43,0.47,0.85,0.7,1.28c2.72,5.13,5.44,10.25,8.17,15.38
	c9.89,18.64,36.86,17.85,45.65-1.33c8.79-19.18-8.22-40.12-28.8-35.45c-1.61,0.37-3.24-0.53-3.78-2.09
	c-2.12-6.04-4.23-12.08-6.34-18.13c-0.62-1.77,0.39-3.7,2.2-4.2C164.52,24.24,168.71,23.64,173.09,23.58z"/>
</svg>
